<?xml version="1.0" encoding="utf-8"?>
<!-- Generator: Adobe Illustrator 25.0.1, SVG Export Plug-In . SVG Version: 6.00 Build 0)  -->
<svg version="1.1" id="Слой_1" xmlns="http://www.w3.org/2000/svg" xmlns:xlink="http://www.w3.org/1999/xlink" x="0px" y="0px"
	 viewBox="0 0 150.2 66" style="enable-background:new 0 0 150.2 66;" xml:space="preserve">
<style type="text/css">
	.st0{fill-rule:evenodd;clip-rule:evenodd;fill:#2490CF;}
	.st1{fill-rule:evenodd;clip-rule:evenodd;fill:#02446D;}
	.st2{fill-rule:evenodd;clip-rule:evenodd;fill:#E7B688;}
</style>
<polygon class="st0" points="79.4,15.5 82.7,15.5 82.7,13.6 79.4,13.6 78.4,13.6 77.5,13.6 77.5,24.4 79.4,24.4 79.4,15.5 "/>
<path class="st0" d="M85.5,16.9c0-0.4,0.1-0.8,0.4-1c0.2-0.3,0.6-0.4,1-0.4c0.4,0,0.7,0.1,1,0.4c0.2,0.3,0.4,0.6,0.4,1l0,4.3
	c0,0.4-0.1,0.8-0.4,1c-0.3,0.3-0.6,0.4-1,0.4c-0.4,0-0.7-0.1-1-0.4c-0.2-0.3-0.4-0.6-0.4-1V16.9L85.5,16.9z M85,24.1
	c0.5,0.3,1.1,0.4,1.8,0.4c0.7,0,1.3-0.1,1.8-0.4c0.5-0.3,0.9-0.6,1.2-1.1c0.3-0.5,0.4-1.1,0.4-1.7v-4.5c0-0.7-0.1-1.2-0.4-1.7
	c-0.3-0.5-0.7-0.9-1.2-1.1c-0.5-0.3-1.1-0.4-1.8-0.4c-0.7,0-1.3,0.1-1.8,0.4c-0.5,0.3-0.9,0.6-1.2,1.1c-0.3,0.5-0.4,1.1-0.4,1.7v4.5
	c0,0.7,0.1,1.2,0.4,1.7C84.2,23.5,84.5,23.9,85,24.1L85,24.1z"/>
<path class="st0" d="M96.5,15.5v7h-2.6c0.1-0.2,0.2-0.3,0.2-0.5c0.2-0.6,0.3-1.3,0.3-2.2v-4.4H96.5L96.5,15.5z M96.5,24.4h1.1v2.1
	h1.8v-3.9h-0.6h-0.4v-8.9h-1.1h-0.9h-2.1h-0.6h-1.2v6.6c0,0.7-0.1,1.3-0.3,1.7c-0.2,0.4-0.5,0.6-0.8,0.6h-0.2h-0.1v1.9v2.1h1.8v-2.1
	H96.5L96.5,24.4z"/>
<path class="st0" d="M82.1,31.2c0,0.3-0.1,0.6-0.3,0.8c-0.2,0.2-0.4,0.3-0.7,0.3h-1.6v-2.9h1.6c0.3,0,0.5,0.1,0.7,0.3
	c0.2,0.2,0.3,0.5,0.3,0.8V31.2L82.1,31.2z M82.7,28c-0.4-0.2-1-0.3-1.6-0.3l-1.6,0h-1h-0.9v10.8h1.9v-4.2h1.6c0.6,0,1.1-0.1,1.6-0.3
	c0.4-0.2,0.8-0.6,1-1c0.2-0.4,0.4-0.9,0.4-1.5l0-0.9c0-0.6-0.1-1.1-0.4-1.5C83.4,28.5,83.1,28.2,82.7,28L82.7,28z"/>
<path class="st0" d="M88.2,31.2l1,3.7h-2L88.2,31.2L88.2,31.2z M86.7,36.7h3l0.5,1.7h2l-3.4-10.8h-1.3l-3.3,10.8h2L86.7,36.7
	L86.7,36.7z"/>
<path class="st0" d="M96.7,33.6c0.3,0,0.6,0.1,0.8,0.3c0.2,0.2,0.3,0.5,0.3,0.9l0,0.4c0,0.4-0.1,0.7-0.3,0.9
	c-0.2,0.2-0.5,0.3-0.8,0.3h-1.6v-2.9H96.7L96.7,33.6z M95.2,38.4h1.7c0.6,0,1.1-0.1,1.5-0.3c0.4-0.2,0.8-0.6,1-1
	c0.2-0.4,0.3-0.9,0.3-1.5v-0.9c0-0.6-0.1-1.1-0.3-1.5c-0.2-0.4-0.6-0.8-1-1c-0.4-0.2-1-0.3-1.5-0.3l-1.7,0v-2.3h4v-1.9h-4h-1h-0.9
	v10.8h0.9H95.2L95.2,38.4z"/>
<path class="st0" d="M103,30.8c0-0.4,0.1-0.8,0.4-1c0.2-0.3,0.6-0.4,1-0.4c0.4,0,0.7,0.1,1,0.4c0.2,0.3,0.4,0.6,0.4,1l0,4.3
	c0,0.4-0.1,0.8-0.4,1c-0.3,0.3-0.6,0.4-1,0.4c-0.4,0-0.7-0.1-1-0.4c-0.2-0.3-0.4-0.6-0.4-1V30.8L103,30.8z M102.5,38.1
	c0.5,0.3,1.1,0.4,1.8,0.4c0.7,0,1.3-0.1,1.8-0.4c0.5-0.3,0.9-0.6,1.2-1.1c0.3-0.5,0.4-1.1,0.4-1.7l0-4.5c0-0.7-0.1-1.2-0.4-1.7
	c-0.3-0.5-0.7-0.9-1.2-1.1c-0.5-0.3-1.1-0.4-1.8-0.4c-0.7,0-1.3,0.1-1.8,0.4c-0.5,0.3-0.9,0.6-1.2,1.1c-0.3,0.5-0.4,1.1-0.4,1.7v4.5
	c0,0.7,0.1,1.2,0.4,1.7C101.6,37.5,102,37.8,102.5,38.1L102.5,38.1z"/>
<path class="st0" d="M113.2,34.4v4h2V27.6h-2v3.5v1.1c0,0.4-0.1,0.7-0.3,1c-0.2,0.2-0.5,0.3-0.9,0.3c-0.3,0-0.6-0.1-0.7-0.3
	c-0.2-0.2-0.3-0.5-0.3-0.9v-4.7h-2v4.6c0,0.9,0.2,1.7,0.7,2.2c0.4,0.5,1.1,0.8,1.9,0.8c0.7,0,1.2-0.2,1.5-0.7
	C113.2,34.5,113.2,34.5,113.2,34.4L113.2,34.4z"/>
<polygon class="st0" points="122.1,38.4 123.9,38.4 123.9,27.6 122,27.6 118.9,35 118.9,27.6 117.1,27.6 117.1,38.4 119,38.4 
	122.1,31.1 122.1,38.4 "/>
<polygon class="st0" points="126.9,38.4 128.4,34.9 130.1,38.4 132.1,38.4 129.4,32.9 132,27.6 129.9,27.6 128.5,31 126.9,27.6 
	124.9,27.6 127.5,33 124.8,38.4 126.9,38.4 "/>
<polygon class="st0" points="82.1,41.6 79.4,41.6 78.5,41.6 77.5,41.6 77.5,52.4 79.4,52.4 79.4,43.5 82.1,43.5 82.1,52.4 84,52.4 
	84,41.6 83.3,41.6 82.1,41.6 "/>
<path class="st0" d="M90.4,45.2c0,0.3-0.1,0.6-0.3,0.8c-0.2,0.2-0.4,0.3-0.7,0.3h-1.6v-2.9h1.6c0.3,0,0.5,0.1,0.7,0.3
	c0.2,0.2,0.3,0.5,0.3,0.8V45.2L90.4,45.2z M91,42c-0.4-0.2-1-0.3-1.6-0.3h-1.6h-1h-0.9v10.8h1.9v-4.2h1.6c0.6,0,1.1-0.1,1.6-0.3
	c0.4-0.2,0.8-0.6,1-1c0.2-0.4,0.4-0.9,0.4-1.5v-0.9c0-0.6-0.1-1.1-0.4-1.5S91.5,42.2,91,42L91,42z"/>
<path class="st0" d="M98.4,49.1c0,0.4-0.1,0.8-0.4,1c-0.3,0.3-0.6,0.4-1,0.4c-0.4,0-0.7-0.1-1-0.4c-0.2-0.3-0.4-0.6-0.4-1v-4.3
	c0-0.4,0.1-0.8,0.4-1c0.2-0.3,0.6-0.4,1-0.4c0.4,0,0.7,0.1,1,0.4c0.2,0.3,0.4,0.6,0.4,1L98.4,49.1L98.4,49.1z M98.8,41.9
	c-0.5-0.3-1.1-0.4-1.8-0.4c-0.7,0-1.3,0.1-1.8,0.4c-0.5,0.3-0.9,0.6-1.2,1.1c-0.3,0.5-0.4,1.1-0.4,1.7v4.5c0,0.7,0.1,1.2,0.4,1.7
	c0.3,0.5,0.7,0.9,1.2,1.1c0.5,0.3,1.1,0.4,1.8,0.4c0.7,0,1.3-0.1,1.8-0.4c0.5-0.3,0.9-0.6,1.2-1.1c0.3-0.5,0.4-1.1,0.4-1.7v-4.5
	c0-0.7-0.1-1.2-0.4-1.7C99.7,42.5,99.3,42.2,98.8,41.9L98.8,41.9z"/>
<path class="st0" d="M108.9,47.3c0,0.7-0.2,1.2-0.7,1.6c-0.3,0.2-0.7,0.4-1.1,0.4v-5c0.4,0.1,0.8,0.2,1.1,0.5
	c0.5,0.4,0.7,0.9,0.7,1.6V47.3L108.9,47.3z M103.9,48.9c-0.5-0.4-0.7-0.9-0.7-1.6v-1c0-0.7,0.2-1.2,0.7-1.6c0.3-0.2,0.7-0.4,1.1-0.5
	l0,5C104.6,49.2,104.2,49.1,103.9,48.9L103.9,48.9z M109.5,43.4c-0.6-0.5-1.5-0.8-2.5-1v-1.2h-2v1.2c-1,0.1-1.9,0.4-2.5,1
	c-0.8,0.7-1.2,1.7-1.2,2.9v1c0,1.3,0.4,2.2,1.2,2.9c0.6,0.5,1.5,0.8,2.5,1l0,1.2h2v-1.2c1-0.1,1.9-0.4,2.5-1
	c0.8-0.7,1.2-1.7,1.2-2.9v-1C110.7,45.1,110.3,44.1,109.5,43.4L109.5,43.4z"/>
<polygon class="st0" points="112.7,41.6 112,41.6 112,52.4 112.7,52.4 113.9,52.4 118,52.4 118,50.5 113.9,50.5 113.9,48 117.4,48 
	117.4,46.1 113.9,46.1 113.9,43.5 118,43.5 118,41.6 113.9,41.6 112.7,41.6 "/>
<path class="st0" d="M121.6,43.8c0.2-0.3,0.5-0.4,0.9-0.4c0.2,0,0.5,0.1,0.6,0.2c0.2,0.1,0.3,0.3,0.4,0.6c0.1,0.3,0.2,0.6,0.2,1h2
	c0-0.8-0.2-1.5-0.4-2c-0.3-0.5-0.6-0.9-1.1-1.2c-0.5-0.3-1-0.4-1.7-0.4c-0.7,0-1.3,0.1-1.7,0.4c-0.5,0.3-0.8,0.7-1.1,1.2
	c-0.3,0.5-0.4,1.1-0.4,1.8v4.2c0,0.7,0.1,1.3,0.4,1.8c0.3,0.5,0.6,0.9,1.1,1.2c0.5,0.3,1.1,0.4,1.7,0.4c0.7,0,1.2-0.1,1.7-0.4
	c0.5-0.3,0.8-0.7,1.1-1.2c0.3-0.5,0.4-1.2,0.5-2h-2c0,0.6-0.2,1-0.4,1.3c-0.2,0.3-0.5,0.4-0.9,0.4c-0.4,0-0.7-0.1-0.9-0.4
	c-0.2-0.2-0.3-0.6-0.3-1l0-4.2C121.2,44.4,121.3,44.1,121.6,43.8L121.6,43.8z"/>
<path class="st0" d="M129.1,43.8c0.2-0.3,0.5-0.4,0.9-0.4c0.2,0,0.5,0.1,0.6,0.2c0.2,0.1,0.3,0.3,0.4,0.6c0.1,0.3,0.2,0.6,0.2,1h2
	c0-0.8-0.2-1.5-0.4-2c-0.3-0.5-0.6-0.9-1.1-1.2c-0.5-0.3-1-0.4-1.7-0.4c-0.7,0-1.3,0.1-1.7,0.4c-0.5,0.3-0.8,0.7-1.1,1.2
	c-0.3,0.5-0.4,1.1-0.4,1.8l0,4.2c0,0.7,0.1,1.3,0.4,1.8c0.3,0.5,0.6,0.9,1.1,1.2c0.5,0.3,1.1,0.4,1.7,0.4c0.7,0,1.2-0.1,1.7-0.4
	c0.5-0.3,0.8-0.7,1.1-1.2c0.3-0.5,0.4-1.2,0.5-2h-2c0,0.6-0.2,1-0.4,1.3c-0.2,0.3-0.5,0.4-0.9,0.4c-0.4,0-0.7-0.1-0.9-0.4
	c-0.2-0.2-0.3-0.6-0.3-1v-4.2C128.8,44.4,128.9,44.1,129.1,43.8L129.1,43.8z"/>
<polygon class="st0" points="136.4,49 136.4,41.6 134.6,41.6 134.6,52.4 136.6,52.4 139.7,45 139.7,52.4 141.5,52.4 141.5,41.6 
	139.6,41.6 136.4,49 "/>
<path class="st0" d="M146.7,40.8L146.7,40.8c0.8,0,1.3-0.2,1.7-0.6c0.4-0.4,0.6-1,0.6-1.7l-1.6,0c0,0.3-0.1,0.5-0.2,0.7
	c-0.1,0.2-0.3,0.3-0.5,0.3l-0.1,0c-0.2,0-0.4-0.1-0.5-0.3c-0.1-0.2-0.2-0.4-0.2-0.7l-1.5,0c0,0.7,0.2,1.3,0.6,1.7
	C145.4,40.6,146,40.8,146.7,40.8L146.7,40.8z"/>
<polygon class="st0" points="148.2,41.6 145.1,49 145.1,41.6 143.3,41.6 143.3,52.4 145.3,52.4 148.4,45 148.4,52.4 150.2,52.4 
	150.2,41.6 148.2,41.6 "/>
<path class="st1" d="M66.9,32v2.9L62,36.1l-2.6,1.4l2.4-0.3c-0.4,2.1-0.9,4-1.7,5.9l3.6,3.5l-2.8,5L56.2,50l-2.9-0.1l2.2,1
	c-1.3,1.6-2.8,3-4.4,4.3l1.5,4.9l-4.9,2.9l-3.4-3.7l-2.4-1.6l1.5,2c-1.9,0.7-3.9,1.2-5.9,1.5L36.3,66h-5.7l-1.1-4.9l-1.3-2.6
	l0.3,2.4c-2-0.4-4-0.9-5.8-1.7l-3.4,3.7L14.3,60l1.5-4.9l0.1-2.9l-1,2.3c-1.6-1.3-3-2.8-4.2-4.4l-4.8,1.5l-2.8-5l3.6-3.5l1.6-2.5
	l-1.9,1.5c-0.7-1.9-1.2-3.9-1.5-6L0,34.9V32h10.3c0,0.1,0,0.2,0,0.3c0,13,10.4,23.5,23.2,23.5c12.8,0,23.2-10.5,23.2-23.5
	c0-0.1,0-0.2,0-0.3H66.9L66.9,32z"/>
<path class="st1" d="M33.3,0c0,0,2.3,2.8,2.4,4.1c0,1.2-0.9,2.3-2.1,2.3c-1.2,0-2.3-0.9-2.3-2.2C31.2,3,33.3,0,33.3,0L33.3,0z"/>
<path class="st1" d="M24.7,1.2c0,0,3,2.1,3.3,3.3c0.4,1.2-0.3,2.5-1.5,2.8c-1.2,0.4-2.4-0.3-2.8-1.5C23.4,4.7,24.7,1.2,24.7,1.2
	L24.7,1.2z"/>
<path class="st1" d="M16.7,4.6c0,0,3.4,1.3,4.1,2.3c0.7,1.1,0.3,2.5-0.7,3.1c-1,0.7-2.4,0.3-3.1-0.7C16.3,8.3,16.7,4.6,16.7,4.6
	L16.7,4.6z"/>
<path class="st1" d="M9.8,10c0,0,3.6,0.3,4.5,1.2c0.9,0.9,0.9,2.3,0.1,3.2c-0.8,0.9-2.2,1-3.1,0.1C10.4,13.7,9.8,10,9.8,10L9.8,10z"
	/>
<path class="st1" d="M4.5,17.1c0,0,3.6-0.6,4.7,0c1.1,0.6,1.5,2,0.9,3.1c-0.6,1.1-1.9,1.5-3,0.9C6,20.4,4.5,17.1,4.5,17.1L4.5,17.1z
	"/>
<path class="st1" d="M1.2,25.3c0,0,3.3-1.5,4.5-1.3c1.2,0.3,1.9,1.5,1.7,2.7c-0.3,1.2-1.5,2-2.7,1.7C3.5,28.1,1.2,25.3,1.2,25.3
	L1.2,25.3z"/>
<path class="st1" d="M65.6,25c0,0-2.1,3-3.3,3.4c-1.2,0.4-2.4-0.3-2.8-1.5c-0.4-1.2,0.3-2.5,1.5-2.8C62.2,23.7,65.6,25,65.6,25
	L65.6,25z"/>
<path class="st1" d="M62.2,16.8c0,0-1.3,3.5-2.3,4.1c-1,0.7-2.4,0.3-3.1-0.7c-0.7-1.1-0.3-2.5,0.7-3.1
	C58.6,16.5,62.2,16.8,62.2,16.8L62.2,16.8z"/>
<path class="st1" d="M56.9,9.8c0,0-0.3,3.7-1.2,4.6c-0.8,0.9-2.2,1-3.1,0.1c-0.9-0.9-0.9-2.3-0.1-3.2C53.3,10.4,56.9,9.8,56.9,9.8
	L56.9,9.8z"/>
<path class="st1" d="M50,4.5c0,0,0.6,3.6,0,4.8c-0.6,1.1-1.9,1.5-3,0.9c-1.1-0.6-1.5-2-0.9-3.1C46.7,6,50,4.5,50,4.5L50,4.5z"/>
<path class="st1" d="M41.9,1.1c0,0,1.5,3.4,1.2,4.6c-0.3,1.2-1.5,2-2.7,1.7c-1.2-0.3-1.9-1.5-1.7-2.7C39.1,3.5,41.9,1.1,41.9,1.1
	L41.9,1.1z"/>
<path class="st1" d="M23.2,47.4c0-0.9,1.5-4.7,1.8-5.5c2.3-5.2,3.5-7.4,6.7-11.8c0.6-0.8,1.1-1.4,1.7-2.1l0,0l0,0
	c0.5,0.7,1.1,1.3,1.7,2.1c3.2,4.4,4.5,6.6,6.7,11.8c0.3,0.8,1.8,4.6,1.8,5.5C38,50.7,28.8,50.7,23.2,47.4L23.2,47.4z M53.4,26.9
	c0-2.7-0.7-5.2-2-7.4c-3.7-5.4-9.7-9-16.4-9.4c-0.5,0-1,0-1.5,0c-0.2,0-0.3,0-0.5,0c-0.1,0-0.1,0-0.2,0c-0.1,0-0.1,0-0.2,0
	c-2.5,0.1-5,0.6-7,1.4c-3,1.2-6.5,3.5-8.6,6.1c-0.1,0.2-0.2,0.2-0.3,0.4c-0.3,0.4-0.6,0.7-0.8,1.1c-1.5,2.3-2.3,5-2.3,7.9
	c1.2-3.8,3.6-7.1,6.8-9.6c0.6,0.3,1,0.5,1.3,0.7c0.9,0.6,1.8,1.1,2.7,1.7c0.6,0.4,2.2,1.6,2.6,2c-0.1,0.3-0.7,0.7-0.9,0.8
	c-0.2,0.2-0.3,0.3-0.5,0.4c-0.2,0.2-0.3,0.3-0.5,0.5c-0.5,0.5-1.3,1.2-1.9,1.8c-1.1,1.2-2.4,2.6-3.5,3.9c-0.1,0.2-0.3,0.3-0.4,0.5
	c-1.7,2.3-4.4,5.8-5.5,8.4c-0.5-0.5-1.5-3.4-1.8-4.4c-0.8-2.9-1-5.9-0.6-8.7c-1.3,2.5-2,5.3-2,8.2c0,3.5,1,6.7,2.8,9.6
	c0.3,0.4,0.7,0.9,1,1.3c0.2,0.2,0.2,0.2,0.4,0.4c2.5,3.2,6.7,5.9,10.4,7.4c5.8,2.3,13.1,2.3,18.9,0c3.6-1.5,7.9-4.2,10.4-7.4
	c0.1-0.2,0.2-0.2,0.4-0.4c0.4-0.4,0.7-0.9,1-1.3c1.8-2.9,2.8-6.1,2.8-9.6c0-2.9-0.7-5.7-2-8.2c0.4,2.9,0.2,5.8-0.6,8.7
	c-0.3,1-1.2,3.8-1.8,4.4c-1.1-2.5-3.8-6.1-5.5-8.4c-0.1-0.2-0.3-0.3-0.4-0.5c-1-1.4-2.4-2.8-3.5-3.9c-0.5-0.6-1.3-1.3-1.9-1.8
	c-0.2-0.2-0.3-0.3-0.5-0.5c-0.2-0.1-0.3-0.3-0.5-0.4c-0.2-0.2-0.8-0.6-0.9-0.8c0.4-0.4,2-1.6,2.6-2c0.9-0.6,1.8-1.2,2.7-1.7
	c0.3-0.2,0.8-0.4,1.3-0.7C49.8,19.7,52.2,23.1,53.4,26.9L53.4,26.9z M21.7,16.3c0.2-0.2,0.5-0.3,0.7-0.4c1.2,0.6,2.4,1.2,3.9,2.1
	c0.5,0.3,2.7,1.7,2.9,2c-0.1,0.1-0.6,0.5-0.7,0.5l-2.7-1.9c-1-0.6-1.9-1.2-2.9-1.7C22.4,16.7,22.1,16.5,21.7,16.3L21.7,16.3z
	 M24.2,15c0.3-0.1,0.5-0.2,0.8-0.3c1.3,0.5,2.5,1.1,3.6,1.7c0.7,0.4,2.5,1.3,3,1.8c-0.1,0.3,0,0.1-0.3,0.3c-0.2,0.2-0.2,0.1-0.4,0.2
	c-0.9-0.6-1.9-1.2-3-1.9C26.6,16.1,25.4,15.5,24.2,15L24.2,15z M27.2,13.8c2-0.6,4-0.9,6.2-0.9c2.2,0,4.3,0.3,6.2,0.9
	c-1,0.4-2,0.9-3,1.4c-0.4,0.2-3,1.7-3.2,1.7c-0.2-0.1-2.8-1.6-3.2-1.7C29.3,14.7,28.3,14.2,27.2,13.8L27.2,13.8z M41.9,14.6
	c0.3,0.1,0.5,0.2,0.8,0.3c-1.3,0.6-2.5,1.2-3.7,1.9c-1.1,0.6-2,1.3-3,1.9c-0.3-0.1-0.2,0-0.4-0.2c-0.4-0.2-0.2,0-0.3-0.3
	c0.5-0.5,2.3-1.4,3-1.8C39.4,15.7,40.6,15.1,41.9,14.6L41.9,14.6z M44.5,15.9c0.2,0.1,0.5,0.3,0.7,0.4c-0.4,0.2-0.8,0.4-1.2,0.6
	c-1,0.5-1.9,1.1-2.9,1.7l-2.7,1.9c-0.1-0.1-0.6-0.4-0.7-0.5c0.2-0.3,2.4-1.7,2.9-2C42,17.1,43.2,16.4,44.5,15.9L44.5,15.9z
	 M33.4,24.7c-0.2-0.1-0.6-0.5-0.7-0.7c0.2-0.2,0.4-0.4,0.7-0.6c0.3,0.2,0.5,0.4,0.7,0.6C34,24.2,33.6,24.6,33.4,24.7L33.4,24.7z
	 M33.4,20.5L33.4,20.5l-0.7-0.6c0.1-0.1,0.5-0.4,0.7-0.5c0.2,0.1,0.5,0.4,0.7,0.5L33.4,20.5L33.4,20.5L33.4,20.5z M46.7,45.6
	l0.9-0.6c-0.2-1.9-3.8-8.7-5-10.5c-1-1.6-2.1-3.2-3.2-4.6l-2.7-3.2c-0.1-0.1-0.8-0.9-1-1c-0.3,0.2-0.5,0.5-0.7,0.7
	c0.1,0.2,0.7,0.8,0.9,1C43.3,35.6,46.4,45.3,46.7,45.6L46.7,45.6z M50.2,42.3l0.3-0.2c0.8-0.9,0.5-0.7-0.2-2.3
	c-1.1-2.6-3.6-6.7-5.3-8.9l-3.7-4.5c-0.4-0.4-0.6-0.6-1-1.1l-2.1-2c-0.3,0.1-0.7,0.4-0.9,0.7c0.2,0.3,0.6,0.6,0.9,0.9
	c0.3,0.3,0.7,0.7,1,1l2.7,3.1c0.1,0.2,0.3,0.3,0.4,0.5c2.9,3.8,5.1,7.1,7.1,11.5C49.7,41.3,49.9,41.9,50.2,42.3L50.2,42.3z
	 M36.6,21.9c-0.2-0.3-0.4-0.4-0.7-0.6c-0.3,0.2-0.5,0.3-0.7,0.6l0.7,0.7C36.1,22.4,36.4,22.2,36.6,21.9L36.6,21.9z M20.2,45.6
	l-0.9-0.6c0.2-1.9,3.8-8.7,5-10.5c1-1.6,2.1-3.2,3.2-4.6l2.7-3.2c0.1-0.1,0.8-0.9,1-1c0.3,0.2,0.5,0.5,0.7,0.7
	c-0.1,0.2-0.7,0.8-0.9,1C23.6,35.6,20.4,45.3,20.2,45.6L20.2,45.6z M16.7,42.3l-0.3-0.2c-0.8-0.9-0.5-0.7,0.2-2.3
	c1.1-2.6,3.6-6.7,5.3-8.9l3.7-4.5c0.4-0.4,0.6-0.6,1-1.1l2.1-2c0.3,0.1,0.7,0.4,0.9,0.7c-0.2,0.3-0.6,0.6-0.9,0.9
	c-0.3,0.3-0.7,0.7-1,1l-2.7,3.1c-0.1,0.2-0.3,0.3-0.4,0.5c-2.9,3.8-5.1,7.1-7.1,11.5C17.1,41.3,16.9,41.9,16.7,42.3L16.7,42.3z
	 M30.3,21.9c0.2-0.3,0.4-0.4,0.7-0.6c0.3,0.2,0.5,0.3,0.7,0.6l-0.7,0.7C30.8,22.4,30.5,22.2,30.3,21.9L30.3,21.9z"/>
<path class="st2" d="M33.4,52.9c-11.2,0-20.2-9.1-20.2-20.2c0-11.2,9.1-20.2,20.2-20.2c11.2,0,20.2,9.1,20.2,20.2
	C53.7,43.9,44.6,52.9,33.4,52.9L33.4,52.9z M33.4,9.1C20.3,9.1,9.6,19.8,9.6,33c0,13.2,10.7,23.8,23.8,23.8
	c13.2,0,23.8-10.7,23.8-23.8C57.3,19.8,46.6,9.1,33.4,9.1L33.4,9.1z"/>
<path class="st0" d="M66.9,32v2.9L62,36.1l-2.6,1.4l2.4-0.3c-0.4,2.1-0.9,4-1.7,5.9l3.6,3.5l-2.8,5L56.2,50l-2.9-0.1l2.2,1
	c-1.3,1.6-2.8,3-4.4,4.3l1.5,4.9l-4.9,2.9l-3.4-3.7l-2.4-1.6l1.5,2c-1.9,0.7-3.9,1.2-5.9,1.5L36.3,66h-5.7l-1.1-4.9l-1.3-2.6
	l0.3,2.4c-2-0.4-4-0.9-5.8-1.7l-3.4,3.7L14.3,60l1.5-4.9l0.1-2.9l-1,2.3c-1.6-1.3-3-2.8-4.2-4.4l-4.8,1.5l-2.8-5l3.6-3.5l1.6-2.5
	l-1.9,1.5c-0.7-1.9-1.2-3.9-1.5-6L0,34.9V32h10.3c0,0.1,0,0.2,0,0.3c0,13,10.4,23.5,23.2,23.5c12.8,0,23.2-10.5,23.2-23.5
	c0-0.1,0-0.2,0-0.3H66.9L66.9,32z"/>
<path class="st0" d="M33.3,0c0,0,2.3,2.8,2.4,4.1c0,1.2-0.9,2.3-2.1,2.3c-1.2,0-2.3-0.9-2.3-2.2C31.2,3,33.3,0,33.3,0L33.3,0z"/>
<path class="st0" d="M24.7,1.2c0,0,3,2.1,3.3,3.3c0.4,1.2-0.3,2.5-1.5,2.8c-1.2,0.4-2.4-0.3-2.8-1.5C23.4,4.7,24.7,1.2,24.7,1.2
	L24.7,1.2z"/>
<path class="st0" d="M16.7,4.6c0,0,3.4,1.3,4.1,2.3c0.7,1.1,0.3,2.5-0.7,3.1c-1,0.7-2.4,0.3-3.1-0.7C16.3,8.3,16.7,4.6,16.7,4.6
	L16.7,4.6z"/>
<path class="st0" d="M9.8,10c0,0,3.6,0.3,4.5,1.2c0.9,0.9,0.9,2.3,0.1,3.2c-0.8,0.9-2.2,1-3.1,0.1C10.4,13.7,9.8,10,9.8,10L9.8,10z"
	/>
<path class="st0" d="M4.5,17.1c0,0,3.6-0.6,4.7,0c1.1,0.6,1.5,2,0.9,3.1c-0.6,1.1-1.9,1.5-3,0.9C6,20.4,4.5,17.1,4.5,17.1L4.5,17.1z
	"/>
<path class="st0" d="M1.2,25.3c0,0,3.3-1.5,4.5-1.3c1.2,0.3,1.9,1.5,1.7,2.7c-0.3,1.2-1.5,2-2.7,1.7C3.5,28.1,1.2,25.3,1.2,25.3
	L1.2,25.3z"/>
<path class="st0" d="M65.6,25c0,0-2.1,3-3.3,3.4c-1.2,0.4-2.4-0.3-2.8-1.5c-0.4-1.2,0.3-2.5,1.5-2.8C62.2,23.7,65.6,25,65.6,25
	L65.6,25z"/>
<path class="st0" d="M62.2,16.8c0,0-1.3,3.5-2.3,4.1c-1,0.7-2.4,0.3-3.1-0.7c-0.7-1.1-0.3-2.5,0.7-3.1
	C58.6,16.5,62.2,16.8,62.2,16.8L62.2,16.8z"/>
<path class="st0" d="M56.9,9.8c0,0-0.3,3.7-1.2,4.6c-0.8,0.9-2.2,1-3.1,0.1c-0.9-0.9-0.9-2.3-0.1-3.2C53.3,10.4,56.9,9.8,56.9,9.8
	L56.9,9.8z"/>
<path class="st0" d="M50,4.5c0,0,0.6,3.6,0,4.8c-0.6,1.1-1.9,1.5-3,0.9c-1.1-0.6-1.5-2-0.9-3.1C46.7,6,50,4.5,50,4.5L50,4.5z"/>
<path class="st0" d="M41.9,1.1c0,0,1.5,3.4,1.2,4.6c-0.3,1.2-1.5,2-2.7,1.7c-1.2-0.3-1.9-1.5-1.7-2.7C39.1,3.5,41.9,1.1,41.9,1.1
	L41.9,1.1z"/>
<path class="st0" d="M23.2,47.4c0-0.9,1.5-4.7,1.8-5.5c2.3-5.2,3.5-7.4,6.7-11.8c0.6-0.8,1.1-1.4,1.7-2.1l0,0l0,0
	c0.5,0.7,1.1,1.3,1.7,2.1c3.2,4.4,4.5,6.6,6.7,11.8c0.3,0.8,1.8,4.6,1.8,5.5C38,50.7,28.8,50.7,23.2,47.4L23.2,47.4z M53.4,26.9
	c0-2.7-0.7-5.2-2-7.4c-3.7-5.4-9.7-9-16.4-9.4c-0.5,0-1,0-1.5,0c-0.2,0-0.3,0-0.5,0c-0.1,0-0.1,0-0.2,0c-0.1,0-0.1,0-0.2,0
	c-2.5,0.1-5,0.6-7,1.4c-3,1.2-6.5,3.5-8.6,6.1c-0.1,0.2-0.2,0.2-0.3,0.4c-0.3,0.4-0.6,0.7-0.8,1.1c-1.5,2.3-2.3,5-2.3,7.9
	c1.2-3.8,3.6-7.1,6.8-9.6c0.6,0.3,1,0.5,1.3,0.7c0.9,0.6,1.8,1.1,2.7,1.7c0.6,0.4,2.2,1.6,2.6,2c-0.1,0.3-0.7,0.7-0.9,0.8
	c-0.2,0.2-0.3,0.3-0.5,0.4c-0.2,0.2-0.3,0.3-0.5,0.5c-0.5,0.5-1.3,1.2-1.9,1.8c-1.1,1.2-2.4,2.6-3.5,3.9c-0.1,0.2-0.3,0.3-0.4,0.5
	c-1.7,2.3-4.4,5.8-5.5,8.4c-0.5-0.5-1.5-3.4-1.8-4.4c-0.8-2.9-1-5.9-0.6-8.7c-1.3,2.5-2,5.3-2,8.2c0,3.5,1,6.7,2.8,9.6
	c0.3,0.4,0.7,0.9,1,1.3c0.2,0.2,0.2,0.2,0.4,0.4c2.5,3.2,6.7,5.9,10.4,7.4c5.8,2.3,13.1,2.3,18.9,0c3.6-1.5,7.9-4.2,10.4-7.4
	c0.1-0.2,0.2-0.2,0.4-0.4c0.4-0.4,0.7-0.9,1-1.3c1.8-2.9,2.8-6.1,2.8-9.6c0-2.9-0.7-5.7-2-8.2c0.4,2.9,0.2,5.8-0.6,8.7
	c-0.3,1-1.2,3.8-1.8,4.4c-1.1-2.5-3.8-6.1-5.5-8.4c-0.1-0.2-0.3-0.3-0.4-0.5c-1-1.4-2.4-2.8-3.5-3.9c-0.5-0.6-1.3-1.3-1.9-1.8
	c-0.2-0.2-0.3-0.3-0.5-0.5c-0.2-0.1-0.3-0.3-0.5-0.4c-0.2-0.2-0.8-0.6-0.9-0.8c0.4-0.4,2-1.6,2.6-2c0.9-0.6,1.8-1.2,2.7-1.7
	c0.3-0.2,0.8-0.4,1.3-0.7C49.8,19.7,52.2,23.1,53.4,26.9L53.4,26.9z M21.7,16.3c0.2-0.2,0.5-0.3,0.7-0.4c1.2,0.6,2.4,1.2,3.9,2.1
	c0.5,0.3,2.7,1.7,2.9,2c-0.1,0.1-0.6,0.5-0.7,0.5l-2.7-1.9c-1-0.6-1.9-1.2-2.9-1.7C22.4,16.7,22.1,16.5,21.7,16.3L21.7,16.3z
	 M24.2,15c0.3-0.1,0.5-0.2,0.8-0.3c1.3,0.5,2.5,1.1,3.6,1.7c0.7,0.4,2.5,1.3,3,1.8c-0.1,0.3,0,0.1-0.3,0.3c-0.2,0.2-0.2,0.1-0.4,0.2
	c-0.9-0.6-1.9-1.2-3-1.9C26.6,16.1,25.4,15.5,24.2,15L24.2,15z M27.2,13.8c2-0.6,4-0.9,6.2-0.9c2.2,0,4.3,0.3,6.2,0.9
	c-1,0.4-2,0.9-3,1.4c-0.4,0.2-3,1.7-3.2,1.7c-0.2-0.1-2.8-1.6-3.2-1.7C29.3,14.7,28.3,14.2,27.2,13.8L27.2,13.8z M41.9,14.6
	c0.3,0.1,0.5,0.2,0.8,0.3c-1.3,0.6-2.5,1.2-3.7,1.9c-1.1,0.6-2,1.3-3,1.9c-0.3-0.1-0.2,0-0.4-0.2c-0.4-0.2-0.2,0-0.3-0.3
	c0.5-0.5,2.3-1.4,3-1.8C39.4,15.7,40.6,15.1,41.9,14.6L41.9,14.6z M44.5,15.9c0.2,0.1,0.5,0.3,0.7,0.4c-0.4,0.2-0.8,0.4-1.2,0.6
	c-1,0.5-1.9,1.1-2.9,1.7l-2.7,1.9c-0.1-0.1-0.6-0.4-0.7-0.5c0.2-0.3,2.4-1.7,2.9-2C42,17.1,43.2,16.4,44.5,15.9L44.5,15.9z
	 M33.4,24.7c-0.2-0.1-0.6-0.5-0.7-0.7c0.2-0.2,0.4-0.4,0.7-0.6c0.3,0.2,0.5,0.4,0.7,0.6C34,24.2,33.6,24.6,33.4,24.7L33.4,24.7z
	 M33.4,20.5L33.4,20.5l-0.7-0.6c0.1-0.1,0.5-0.4,0.7-0.5c0.2,0.1,0.5,0.4,0.7,0.5L33.4,20.5L33.4,20.5L33.4,20.5z M46.7,45.6
	l0.9-0.6c-0.2-1.9-3.8-8.7-5-10.5c-1-1.6-2.1-3.2-3.2-4.6l-2.7-3.2c-0.1-0.1-0.8-0.9-1-1c-0.3,0.2-0.5,0.5-0.7,0.7
	c0.1,0.2,0.7,0.8,0.9,1C43.3,35.6,46.4,45.3,46.7,45.6L46.7,45.6z M50.2,42.3l0.3-0.2c0.8-0.9,0.5-0.7-0.2-2.3
	c-1.1-2.6-3.6-6.7-5.3-8.9l-3.7-4.5c-0.4-0.4-0.6-0.6-1-1.1l-2.1-2c-0.3,0.1-0.7,0.4-0.9,0.7c0.2,0.3,0.6,0.6,0.9,0.9
	c0.3,0.3,0.7,0.7,1,1l2.7,3.1c0.1,0.2,0.3,0.3,0.4,0.5c2.9,3.8,5.1,7.1,7.1,11.5C49.7,41.3,49.9,41.9,50.2,42.3L50.2,42.3z
	 M36.6,21.9c-0.2-0.3-0.4-0.4-0.7-0.6c-0.3,0.2-0.5,0.3-0.7,0.6l0.7,0.7C36.1,22.4,36.4,22.2,36.6,21.9L36.6,21.9z M20.2,45.6
	l-0.9-0.6c0.2-1.9,3.8-8.7,5-10.5c1-1.6,2.1-3.2,3.2-4.6l2.7-3.2c0.1-0.1,0.8-0.9,1-1c0.3,0.2,0.5,0.5,0.7,0.7
	c-0.1,0.2-0.7,0.8-0.9,1C23.6,35.6,20.4,45.3,20.2,45.6L20.2,45.6z M16.7,42.3l-0.3-0.2c-0.8-0.9-0.5-0.7,0.2-2.3
	c1.1-2.6,3.6-6.7,5.3-8.9l3.7-4.5c0.4-0.4,0.6-0.6,1-1.1l2.1-2c0.3,0.1,0.7,0.4,0.9,0.7c-0.2,0.3-0.6,0.6-0.9,0.9
	c-0.3,0.3-0.7,0.7-1,1l-2.7,3.1c-0.1,0.2-0.3,0.3-0.4,0.5c-2.9,3.8-5.1,7.1-7.1,11.5C17.1,41.3,16.9,41.9,16.7,42.3L16.7,42.3z
	 M30.3,21.9c0.2-0.3,0.4-0.4,0.7-0.6c0.3,0.2,0.5,0.3,0.7,0.6l-0.7,0.7C30.8,22.4,30.5,22.2,30.3,21.9L30.3,21.9z"/>
</svg>
